<?xml version="1.0" standalone="no"?>
<!DOCTYPE svg PUBLIC "-//W3C//DTD SVG 20010904//EN"
 "http://www.w3.org/TR/2001/REC-SVG-20010904/DTD/svg10.dtd">
<svg version="1.0" xmlns="http://www.w3.org/2000/svg"
 width="512.000000pt" height="512.000000pt" viewBox="0 0 512.000000 512.000000"
 preserveAspectRatio="xMidYMid meet">
<metadata>
Created by potrace 1.14, written by Peter Selinger 2001-2017
</metadata>
<g transform="translate(0.000000,512.000000) scale(0.100000,-0.100000)"
fill="#000000" stroke="none">
<path d="M2378 5115 c-2 -1 -39 -5 -82 -9 -44 -4 -82 -9 -85 -11 -4 -2 -34 -7
-66 -10 -117 -14 -472 -111 -499 -136 -6 -5 -16 -9 -23 -9 -31 0 -241 -103
-388 -191 -209 -124 -448 -325 -602 -505 -71 -83 -79 -92 -99 -119 -10 -15
-33 -46 -50 -69 -128 -171 -262 -426 -337 -641 -29 -80 -74 -237 -81 -278 -3
-15 -7 -35 -10 -45 -3 -9 -7 -34 -11 -56 -3 -21 -7 -41 -9 -45 -4 -6 -12 -72
-26 -201 -8 -85 -5 -454 4 -515 4 -22 13 -80 21 -130 29 -174 78 -357 142
-520 35 -89 122 -270 159 -332 10 -17 36 -60 57 -95 45 -75 166 -238 237 -319
316 -360 725 -625 1185 -768 123 -38 289 -74 405 -87 30 -3 76 -10 103 -14 48
-7 471 -5 517 4 14 2 45 7 70 10 25 4 92 16 150 27 58 12 115 23 128 25 38 7
320 103 370 125 365 164 645 365 905 649 316 345 547 824 623 1290 38 235 40
573 5 805 -82 538 -337 1039 -729 1431 -77 77 -163 154 -206 184 -12 8 -30 23
-41 33 -20 19 -212 147 -275 184 -49 29 -276 143 -285 143 -4 0 -21 6 -38 14
-137 62 -431 140 -607 161 -25 3 -56 8 -70 11 -27 6 -456 14 -462 9z"/>
</g>
</svg>
